<svg width="1062" height="420" viewBox="0 0 1062 420" fill="none" xmlns="http://www.w3.org/2000/svg">
<g filter="url(#filter0_dddddd_43_43)">
<rect x="80.0001" width="902" height="204" rx="100" fill="#B5D99C"/>
<path d="M163.8 129V72.2H171V129H163.8ZM178.852 88.92L180.452 79.72H178.052V70.6H184.692V79.72L182.292 88.92H178.852ZM253.218 129H246.178V105.64C246.178 101.267 245.458 98.04 244.018 95.96C242.631 93.88 240.551 92.84 237.778 92.84C234.951 92.84 232.391 93.88 230.098 95.96C227.805 97.9867 226.178 100.627 225.218 103.88V129H218.178V105.64C218.178 101.213 217.485 97.9867 216.098 95.96C214.711 93.88 212.631 92.84 209.858 92.84C207.085 92.84 204.525 93.8533 202.178 95.88C199.885 97.8533 198.258 100.493 197.298 103.8V129H190.258V87.24H196.658V96.2C198.365 93.1067 200.578 90.7333 203.298 89.08C206.018 87.3733 209.085 86.52 212.498 86.52C215.965 86.52 218.738 87.48 220.818 89.4C222.898 91.2667 224.178 93.6933 224.658 96.68C226.525 93.3733 228.791 90.8667 231.458 89.16C234.125 87.4 237.165 86.52 240.578 86.52C242.978 86.52 244.978 86.9733 246.578 87.88C248.231 88.7333 249.538 89.96 250.498 91.56C251.458 93.1067 252.151 94.9467 252.578 97.08C253.005 99.2133 253.218 101.533 253.218 104.04V129ZM285.519 129V72.2H309.839C312.345 72.2 314.639 72.7333 316.719 73.8C318.799 74.8133 320.612 76.2 322.159 77.96C323.705 79.6667 324.905 81.6133 325.759 83.8C326.612 85.9333 327.039 88.12 327.039 90.36C327.039 92.9733 326.532 95.4533 325.519 97.8C324.559 100.147 323.172 102.147 321.359 103.8C319.599 105.453 317.519 106.6 315.119 107.24L328.879 129H320.719L307.759 108.6H292.719V129H285.519ZM292.719 102.2H309.919C311.892 102.2 313.599 101.667 315.039 100.6C316.532 99.48 317.679 98.0133 318.479 96.2C319.332 94.3867 319.759 92.44 319.759 90.36C319.759 88.2267 319.279 86.28 318.319 84.52C317.359 82.7067 316.105 81.2667 314.559 80.2C313.012 79.1333 311.305 78.6 309.439 78.6H292.719V102.2ZM354.129 129.8C350.982 129.8 348.102 129.24 345.489 128.12C342.929 126.947 340.689 125.373 338.769 123.4C336.902 121.373 335.435 119.053 334.369 116.44C333.355 113.827 332.849 111.053 332.849 108.12C332.849 104.173 333.755 100.573 335.569 97.32C337.382 94.0667 339.889 91.4533 343.089 89.48C346.342 87.5067 350.049 86.52 354.209 86.52C358.422 86.52 362.075 87.5333 365.169 89.56C368.315 91.5333 370.742 94.1467 372.449 97.4C374.209 100.6 375.089 104.067 375.089 107.8C375.089 108.333 375.062 108.867 375.009 109.4C375.009 109.88 374.982 110.253 374.929 110.52H340.289C340.502 113.24 341.249 115.667 342.529 117.8C343.862 119.88 345.569 121.533 347.649 122.76C349.729 123.933 351.969 124.52 354.369 124.52C356.929 124.52 359.329 123.88 361.569 122.6C363.862 121.32 365.435 119.64 366.289 117.56L372.369 119.24C371.462 121.267 370.102 123.08 368.289 124.68C366.529 126.28 364.422 127.533 361.969 128.44C359.569 129.347 356.955 129.8 354.129 129.8ZM340.049 105.64H368.529C368.315 102.92 367.542 100.52 366.209 98.44C364.875 96.36 363.169 94.7333 361.089 93.56C359.009 92.3867 356.715 91.8 354.209 91.8C351.755 91.8 349.489 92.3867 347.409 93.56C345.329 94.7333 343.622 96.36 342.289 98.44C341.009 100.52 340.262 102.92 340.049 105.64ZM404.354 129.8C401.101 129.8 398.141 129 395.474 127.4C392.808 125.8 390.701 123.72 389.154 121.16V129H382.914V70.6H389.954V95.56C391.714 92.84 393.874 90.6533 396.434 89C398.994 87.3467 401.981 86.52 405.394 86.52C408.274 86.52 410.861 87.1333 413.154 88.36C415.448 89.5333 417.394 91.16 418.994 93.24C420.648 95.2667 421.901 97.5867 422.754 100.2C423.661 102.76 424.114 105.453 424.114 108.28C424.114 111.213 423.608 113.987 422.594 116.6C421.634 119.16 420.248 121.453 418.434 123.48C416.621 125.453 414.514 127 412.114 128.12C409.768 129.24 407.181 129.8 404.354 129.8ZM402.594 123.72C404.674 123.72 406.594 123.293 408.354 122.44C410.114 121.587 411.634 120.44 412.914 119C414.194 117.56 415.181 115.907 415.874 114.04C416.568 112.173 416.914 110.253 416.914 108.28C416.914 105.56 416.328 103 415.154 100.6C414.034 98.2 412.434 96.28 410.354 94.84C408.328 93.3467 405.954 92.6 403.234 92.6C401.261 92.6 399.421 93.0533 397.714 93.96C396.008 94.8667 394.488 96.0667 393.154 97.56C391.874 99 390.808 100.6 389.954 102.36V114.44C390.221 115.773 390.781 117 391.634 118.12C392.488 119.24 393.528 120.227 394.754 121.08C395.981 121.88 397.261 122.52 398.594 123C399.981 123.48 401.314 123.72 402.594 123.72ZM451.238 129.8C448.091 129.8 445.211 129.24 442.598 128.12C440.038 126.947 437.798 125.373 435.878 123.4C434.011 121.373 432.545 119.053 431.478 116.44C430.465 113.827 429.958 111.053 429.958 108.12C429.958 104.173 430.865 100.573 432.678 97.32C434.491 94.0667 436.998 91.4533 440.198 89.48C443.451 87.5067 447.158 86.52 451.318 86.52C455.531 86.52 459.185 87.5333 462.278 89.56C465.425 91.5333 467.851 94.1467 469.558 97.4C471.318 100.6 472.198 104.067 472.198 107.8C472.198 108.333 472.171 108.867 472.118 109.4C472.118 109.88 472.091 110.253 472.038 110.52H437.398C437.611 113.24 438.358 115.667 439.638 117.8C440.971 119.88 442.678 121.533 444.758 122.76C446.838 123.933 449.078 124.52 451.478 124.52C454.038 124.52 456.438 123.88 458.678 122.6C460.971 121.32 462.545 119.64 463.398 117.56L469.478 119.24C468.571 121.267 467.211 123.08 465.398 124.68C463.638 126.28 461.531 127.533 459.078 128.44C456.678 129.347 454.065 129.8 451.238 129.8ZM437.158 105.64H465.638C465.425 102.92 464.651 100.52 463.318 98.44C461.985 96.36 460.278 94.7333 458.198 93.56C456.118 92.3867 453.825 91.8 451.318 91.8C448.865 91.8 446.598 92.3867 444.518 93.56C442.438 94.7333 440.731 96.36 439.398 98.44C438.118 100.52 437.371 102.92 437.158 105.64ZM498.504 129.8C495.357 129.8 492.477 129.24 489.864 128.12C487.304 126.947 485.064 125.347 483.144 123.32C481.277 121.293 479.81 118.973 478.744 116.36C477.73 113.747 477.224 110.973 477.224 108.04C477.224 104.093 478.104 100.493 479.864 97.24C481.624 93.9867 484.104 91.4 487.304 89.48C490.504 87.5067 494.21 86.52 498.424 86.52C502.53 86.52 506.104 87.4533 509.144 89.32C512.237 91.1333 514.53 93.5867 516.024 96.68L509.144 98.84C508.077 96.8667 506.584 95.3467 504.664 94.28C502.744 93.16 500.61 92.6 498.264 92.6C495.704 92.6 493.357 93.2667 491.224 94.6C489.144 95.9333 487.49 97.7733 486.264 100.12C485.037 102.413 484.424 105.053 484.424 108.04C484.424 110.973 485.037 113.64 486.264 116.04C487.544 118.387 489.224 120.253 491.304 121.64C493.437 123.027 495.784 123.72 498.344 123.72C499.997 123.72 501.57 123.427 503.064 122.84C504.61 122.253 505.944 121.48 507.064 120.52C508.237 119.507 509.037 118.413 509.464 117.24L516.344 119.32C515.49 121.347 514.184 123.16 512.424 124.76C510.717 126.307 508.664 127.533 506.264 128.44C503.917 129.347 501.33 129.8 498.504 129.8ZM542.41 129.8C539.263 129.8 536.383 129.24 533.77 128.12C531.21 126.947 528.97 125.347 527.05 123.32C525.183 121.293 523.717 118.973 522.65 116.36C521.637 113.747 521.13 110.973 521.13 108.04C521.13 104.093 522.01 100.493 523.77 97.24C525.53 93.9867 528.01 91.4 531.21 89.48C534.41 87.5067 538.117 86.52 542.33 86.52C546.437 86.52 550.01 87.4533 553.05 89.32C556.143 91.1333 558.437 93.5867 559.93 96.68L553.05 98.84C551.983 96.8667 550.49 95.3467 548.57 94.28C546.65 93.16 544.517 92.6 542.17 92.6C539.61 92.6 537.263 93.2667 535.13 94.6C533.05 95.9333 531.397 97.7733 530.17 100.12C528.943 102.413 528.33 105.053 528.33 108.04C528.33 110.973 528.943 113.64 530.17 116.04C531.45 118.387 533.13 120.253 535.21 121.64C537.343 123.027 539.69 123.72 542.25 123.72C543.903 123.72 545.477 123.427 546.97 122.84C548.517 122.253 549.85 121.48 550.97 120.52C552.143 119.507 552.943 118.413 553.37 117.24L560.25 119.32C559.397 121.347 558.09 123.16 556.33 124.76C554.623 126.307 552.57 127.533 550.17 128.44C547.823 129.347 545.237 129.8 542.41 129.8ZM564.947 116.92C564.947 114.253 565.694 111.96 567.187 110.04C568.734 108.067 570.84 106.547 573.507 105.48C576.174 104.413 579.267 103.88 582.787 103.88C584.654 103.88 586.627 104.04 588.707 104.36C590.787 104.627 592.627 105.053 594.227 105.64V102.6C594.227 99.4 593.267 96.8933 591.347 95.08C589.427 93.2133 586.707 92.28 583.187 92.28C580.894 92.28 578.68 92.7067 576.547 93.56C574.467 94.36 572.254 95.5333 569.907 97.08L567.347 92.12C570.067 90.2533 572.787 88.8667 575.507 87.96C578.227 87 581.054 86.52 583.987 86.52C589.32 86.52 593.534 88.0133 596.627 91C599.72 93.9333 601.267 98.04 601.267 103.32V121C601.267 121.853 601.427 122.493 601.747 122.92C602.12 123.293 602.707 123.507 603.507 123.56V129C602.814 129.107 602.2 129.187 601.667 129.24C601.187 129.293 600.787 129.32 600.467 129.32C598.814 129.32 597.56 128.867 596.707 127.96C595.907 127.053 595.454 126.093 595.347 125.08L595.187 122.44C593.374 124.787 591 126.6 588.067 127.88C585.134 129.16 582.227 129.8 579.347 129.8C576.574 129.8 574.094 129.24 571.907 128.12C569.72 126.947 568.014 125.4 566.787 123.48C565.56 121.507 564.947 119.32 564.947 116.92ZM592.147 119.88C592.787 119.133 593.294 118.387 593.667 117.64C594.04 116.84 594.227 116.173 594.227 115.64V110.44C592.574 109.8 590.84 109.32 589.027 109C587.214 108.627 585.427 108.44 583.667 108.44C580.094 108.44 577.187 109.16 574.947 110.6C572.76 111.987 571.667 113.907 571.667 116.36C571.667 117.693 572.014 119 572.707 120.28C573.454 121.507 574.52 122.52 575.907 123.32C577.347 124.12 579.107 124.52 581.187 124.52C583.374 124.52 585.454 124.093 587.427 123.24C589.4 122.333 590.974 121.213 592.147 119.88ZM679.558 72.2V129H672.358V103.16H641.078V129H633.878V72.2H641.078V96.76H672.358V72.2H679.558ZM709.832 129.8C706.685 129.8 703.805 129.24 701.192 128.12C698.632 126.947 696.392 125.373 694.472 123.4C692.605 121.373 691.139 119.053 690.072 116.44C689.059 113.827 688.552 111.053 688.552 108.12C688.552 104.173 689.459 100.573 691.272 97.32C693.085 94.0667 695.592 91.4533 698.792 89.48C702.045 87.5067 705.752 86.52 709.912 86.52C714.125 86.52 717.779 87.5333 720.872 89.56C724.019 91.5333 726.445 94.1467 728.152 97.4C729.912 100.6 730.792 104.067 730.792 107.8C730.792 108.333 730.765 108.867 730.712 109.4C730.712 109.88 730.685 110.253 730.632 110.52H695.992C696.205 113.24 696.952 115.667 698.232 117.8C699.565 119.88 701.272 121.533 703.352 122.76C705.432 123.933 707.672 124.52 710.072 124.52C712.632 124.52 715.032 123.88 717.272 122.6C719.565 121.32 721.139 119.64 721.992 117.56L728.072 119.24C727.165 121.267 725.805 123.08 723.992 124.68C722.232 126.28 720.125 127.533 717.672 128.44C715.272 129.347 712.659 129.8 709.832 129.8ZM695.752 105.64H724.232C724.019 102.92 723.245 100.52 721.912 98.44C720.579 96.36 718.872 94.7333 716.792 93.56C714.712 92.3867 712.419 91.8 709.912 91.8C707.459 91.8 705.192 92.3867 703.112 93.56C701.032 94.7333 699.325 96.36 697.992 98.44C696.712 100.52 695.965 102.92 695.752 105.64ZM774.858 129H767.818V105.64C767.818 101.213 767.124 97.9867 765.738 95.96C764.404 93.88 762.351 92.84 759.578 92.84C757.658 92.84 755.738 93.32 753.818 94.28C751.951 95.24 750.271 96.5467 748.778 98.2C747.338 99.8 746.298 101.667 745.658 103.8V129H738.618V87.24H745.018V96.2C746.138 94.2267 747.578 92.52 749.338 91.08C751.098 89.64 753.098 88.52 755.338 87.72C757.578 86.92 759.924 86.52 762.378 86.52C764.778 86.52 766.778 86.9733 768.378 87.88C770.031 88.7333 771.311 89.96 772.218 91.56C773.178 93.1067 773.844 94.9467 774.218 97.08C774.644 99.2133 774.858 101.533 774.858 104.04V129ZM783.085 108.2C783.085 104.253 783.885 100.653 785.485 97.4C787.138 94.0933 789.378 91.4533 792.205 89.48C795.085 87.5067 798.365 86.52 802.045 86.52C805.405 86.52 808.418 87.4 811.085 89.16C813.752 90.92 815.832 93.0533 817.325 95.56V70.6H824.365V121C824.365 121.853 824.525 122.493 824.845 122.92C825.218 123.293 825.805 123.507 826.605 123.56V129C825.272 129.213 824.232 129.32 823.485 129.32C822.098 129.32 820.872 128.84 819.805 127.88C818.792 126.92 818.285 125.853 818.285 124.68V121.16C816.632 123.827 814.418 125.933 811.645 127.48C808.872 129.027 805.992 129.8 803.005 129.8C800.125 129.8 797.458 129.24 795.005 128.12C792.605 126.947 790.498 125.347 788.685 123.32C786.925 121.293 785.538 119 784.525 116.44C783.565 113.827 783.085 111.08 783.085 108.2ZM817.325 114.36V102.36C816.685 100.547 815.645 98.92 814.205 97.48C812.765 95.9867 811.138 94.8133 809.325 93.96C807.565 93.0533 805.805 92.6 804.045 92.6C801.965 92.6 800.072 93.0533 798.365 93.96C796.712 94.8133 795.272 95.9867 794.045 97.48C792.872 98.92 791.965 100.573 791.325 102.44C790.685 104.307 790.365 106.253 790.365 108.28C790.365 110.36 790.712 112.333 791.405 114.2C792.152 116.067 793.165 117.72 794.445 119.16C795.778 120.6 797.298 121.72 799.005 122.52C800.765 123.32 802.658 123.72 804.685 123.72C805.965 123.72 807.272 123.48 808.605 123C809.992 122.52 811.298 121.853 812.525 121C813.752 120.147 814.792 119.16 815.645 118.04C816.498 116.867 817.058 115.64 817.325 114.36ZM854.598 129.8C851.451 129.8 848.571 129.24 845.958 128.12C843.398 126.947 841.158 125.373 839.238 123.4C837.371 121.373 835.904 119.053 834.838 116.44C833.824 113.827 833.318 111.053 833.318 108.12C833.318 104.173 834.224 100.573 836.038 97.32C837.851 94.0667 840.358 91.4533 843.558 89.48C846.811 87.5067 850.518 86.52 854.678 86.52C858.891 86.52 862.544 87.5333 865.638 89.56C868.784 91.5333 871.211 94.1467 872.918 97.4C874.678 100.6 875.558 104.067 875.558 107.8C875.558 108.333 875.531 108.867 875.478 109.4C875.478 109.88 875.451 110.253 875.398 110.52H840.758C840.971 113.24 841.718 115.667 842.998 117.8C844.331 119.88 846.038 121.533 848.118 122.76C850.198 123.933 852.438 124.52 854.838 124.52C857.398 124.52 859.798 123.88 862.038 122.6C864.331 121.32 865.904 119.64 866.758 117.56L872.838 119.24C871.931 121.267 870.571 123.08 868.758 124.68C866.998 126.28 864.891 127.533 862.438 128.44C860.038 129.347 857.424 129.8 854.598 129.8ZM840.518 105.64H868.998C868.784 102.92 868.011 100.52 866.678 98.44C865.344 96.36 863.638 94.7333 861.558 93.56C859.478 92.3867 857.184 91.8 854.678 91.8C852.224 91.8 849.958 92.3867 847.878 93.56C845.798 94.7333 844.091 96.36 842.758 98.44C841.478 100.52 840.731 102.92 840.518 105.64ZM883.543 70.6H890.583V118.2C890.583 120.493 890.903 121.907 891.543 122.44C892.183 122.973 892.956 123.24 893.863 123.24C894.983 123.24 896.05 123.133 897.063 122.92C898.076 122.653 898.93 122.387 899.623 122.12L900.743 127.88C899.57 128.36 898.183 128.76 896.583 129.08C894.983 129.4 893.57 129.56 892.343 129.56C889.623 129.56 887.463 128.787 885.863 127.24C884.316 125.693 883.543 123.533 883.543 120.76V70.6Z" fill="black"/>
<path d="M93.8805 239.562L131.166 145.326L188.117 202.276L93.8805 239.562Z" fill="#B5D99C"/>
</g>
<defs>
<filter id="filter0_dddddd_43_43" x="9.15527e-05" y="0" width="1062" height="419.562" filterUnits="userSpaceOnUse" color-interpolation-filters="sRGB">
<feFlood flood-opacity="0" result="BackgroundImageFix"/>
<feColorMatrix in="SourceAlpha" type="matrix" values="0 0 0 0 0 0 0 0 0 0 0 0 0 0 0 0 0 0 127 0" result="hardAlpha"/>
<feOffset dy="2.76726"/>
<feGaussianBlur stdDeviation="1.1069"/>
<feColorMatrix type="matrix" values="0 0 0 0 0.0745098 0 0 0 0 0.0705882 0 0 0 0 0 0 0 0 0.0196802 0"/>
<feBlend mode="normal" in2="BackgroundImageFix" result="effect1_dropShadow_43_43"/>
<feColorMatrix in="SourceAlpha" type="matrix" values="0 0 0 0 0 0 0 0 0 0 0 0 0 0 0 0 0 0 127 0" result="hardAlpha"/>
<feOffset dy="6.6501"/>
<feGaussianBlur stdDeviation="2.66004"/>
<feColorMatrix type="matrix" values="0 0 0 0 0.0745098 0 0 0 0 0.0705882 0 0 0 0 0 0 0 0 0.0282725 0"/>
<feBlend mode="normal" in2="effect1_dropShadow_43_43" result="effect2_dropShadow_43_43"/>
<feColorMatrix in="SourceAlpha" type="matrix" values="0 0 0 0 0 0 0 0 0 0 0 0 0 0 0 0 0 0 127 0" result="hardAlpha"/>
<feOffset dy="12.5216"/>
<feGaussianBlur stdDeviation="5.00862"/>
<feColorMatrix type="matrix" values="0 0 0 0 0.0745098 0 0 0 0 0.0705882 0 0 0 0 0 0 0 0 0.035 0"/>
<feBlend mode="normal" in2="effect2_dropShadow_43_43" result="effect3_dropShadow_43_43"/>
<feColorMatrix in="SourceAlpha" type="matrix" values="0 0 0 0 0 0 0 0 0 0 0 0 0 0 0 0 0 0 127 0" result="hardAlpha"/>
<feOffset dy="22.3363"/>
<feGaussianBlur stdDeviation="8.93452"/>
<feColorMatrix type="matrix" values="0 0 0 0 0.0745098 0 0 0 0 0.0705882 0 0 0 0 0 0 0 0 0.0417275 0"/>
<feBlend mode="normal" in2="effect3_dropShadow_43_43" result="effect4_dropShadow_43_43"/>
<feColorMatrix in="SourceAlpha" type="matrix" values="0 0 0 0 0 0 0 0 0 0 0 0 0 0 0 0 0 0 127 0" result="hardAlpha"/>
<feOffset dy="41.7776"/>
<feGaussianBlur stdDeviation="16.711"/>
<feColorMatrix type="matrix" values="0 0 0 0 0.0745098 0 0 0 0 0.0705882 0 0 0 0 0 0 0 0 0.0503198 0"/>
<feBlend mode="normal" in2="effect4_dropShadow_43_43" result="effect5_dropShadow_43_43"/>
<feColorMatrix in="SourceAlpha" type="matrix" values="0 0 0 0 0 0 0 0 0 0 0 0 0 0 0 0 0 0 127 0" result="hardAlpha"/>
<feOffset dy="100"/>
<feGaussianBlur stdDeviation="40"/>
<feColorMatrix type="matrix" values="0 0 0 0 0.0745098 0 0 0 0 0.0705882 0 0 0 0 0 0 0 0 0.07 0"/>
<feBlend mode="normal" in2="effect5_dropShadow_43_43" result="effect6_dropShadow_43_43"/>
<feBlend mode="normal" in="SourceGraphic" in2="effect6_dropShadow_43_43" result="shape"/>
</filter>
</defs>
</svg>
