<svg width="217" height="70" viewBox="0 0 217 70" fill="none" xmlns="http://www.w3.org/2000/svg">
<path d="M60.784 8.488C60.352 8.344 59.96 8.272 59.608 8.272C58.696 8.272 57.912 8.584 57.256 9.208C56.952 9.512 56.712 9.864 56.536 10.264C56.36 10.664 56.272 11.072 56.272 11.488V19.288H55.144V11.488C55.144 10.64 55.368 9.88 55.816 9.208C56.28 8.52 56.912 7.984 57.712 7.6C58.288 7.328 58.92 7.192 59.608 7.192C60.488 7.192 61.28 7.408 61.984 7.84L60.784 8.488Z" fill="#131200"/>
<path d="M62.8758 13.912C63.1318 15.24 63.7157 16.304 64.6277 17.104C65.5237 17.904 66.5798 18.304 67.7958 18.304C68.6278 18.304 69.3878 18.12 70.0758 17.752C70.7638 17.384 71.3478 16.88 71.8278 16.24L72.7878 16.768C72.2118 17.584 71.4918 18.232 70.6278 18.712C69.7638 19.176 68.8198 19.408 67.7958 19.408C66.9798 19.408 66.2038 19.256 65.4678 18.952C64.7318 18.632 64.0838 18.192 63.5238 17.632C62.9638 17.072 62.5238 16.424 62.2038 15.688C61.8998 14.952 61.7477 14.176 61.7477 13.36C61.7477 12.544 61.8998 11.768 62.2038 11.032C62.5238 10.28 62.9638 9.624 63.5238 9.064C64.0678 8.504 64.7077 8.072 65.4437 7.768C66.1957 7.464 66.9798 7.312 67.7958 7.312C68.6118 7.312 69.3877 7.464 70.1237 7.768C70.8757 8.072 71.5237 8.504 72.0677 9.064C72.5797 9.592 73.0038 10.272 73.3398 11.104C73.6918 11.936 73.8678 12.744 73.8678 13.528L73.8438 13.912H62.8758ZM67.7958 8.392C66.5798 8.392 65.5237 8.792 64.6277 9.592C63.7157 10.392 63.1318 11.456 62.8758 12.784H72.7158C72.4598 11.456 71.8758 10.392 70.9638 9.592C70.0678 8.792 69.0118 8.392 67.7958 8.392Z" fill="#131200"/>
<path d="M82.1228 19.408C80.9868 19.408 79.9948 19.208 79.1468 18.808C78.2988 18.408 77.6108 17.736 77.0828 16.792V19.288H76.0268V3.352H77.0828V10.12C77.6268 9.16 78.3068 8.472 79.1228 8.056C79.9548 7.624 80.9548 7.408 82.1228 7.408C82.9388 7.408 83.7228 7.568 84.4748 7.888C85.2268 8.208 85.8748 8.64 86.4188 9.184C86.9788 9.744 87.4108 10.392 87.7148 11.128C88.0348 11.848 88.1948 12.608 88.1948 13.408C88.1948 14.208 88.0348 14.976 87.7148 15.712C87.4108 16.432 86.9788 17.072 86.4188 17.632C85.8748 18.176 85.2268 18.608 84.4748 18.928C83.7228 19.248 82.9388 19.408 82.1228 19.408ZM82.1228 8.512C81.4508 8.512 80.8108 8.64 80.2028 8.896C79.6108 9.152 79.0828 9.504 78.6188 9.952C78.1548 10.4 77.7868 10.928 77.5148 11.536C77.2588 12.128 77.1308 12.752 77.1308 13.408C77.1308 14.064 77.2588 14.696 77.5148 15.304C77.7868 15.912 78.1468 16.44 78.5948 16.888C79.0428 17.336 79.5708 17.688 80.1788 17.944C80.8028 18.2 81.4508 18.328 82.1228 18.328C82.7948 18.328 83.4348 18.2 84.0428 17.944C84.6508 17.688 85.1788 17.336 85.6268 16.888C86.0748 16.44 86.4268 15.912 86.6828 15.304C86.9548 14.696 87.0908 14.064 87.0908 13.408C87.0908 12.752 86.9628 12.128 86.7068 11.536C86.4508 10.944 86.0908 10.416 85.6268 9.952C85.1788 9.504 84.6508 9.152 84.0428 8.896C83.4348 8.64 82.7948 8.512 82.1228 8.512Z" fill="#131200"/>
<path d="M90.7664 13.912C91.0224 15.24 91.6064 16.304 92.5184 17.104C93.4144 17.904 94.4704 18.304 95.6864 18.304C96.5184 18.304 97.2784 18.12 97.9664 17.752C98.6544 17.384 99.2384 16.88 99.7184 16.24L100.678 16.768C100.102 17.584 99.3824 18.232 98.5184 18.712C97.6544 19.176 96.7104 19.408 95.6864 19.408C94.8704 19.408 94.0944 19.256 93.3584 18.952C92.6224 18.632 91.9744 18.192 91.4144 17.632C90.8544 17.072 90.4144 16.424 90.0944 15.688C89.7904 14.952 89.6384 14.176 89.6384 13.36C89.6384 12.544 89.7904 11.768 90.0944 11.032C90.4144 10.28 90.8544 9.624 91.4144 9.064C91.9584 8.504 92.5984 8.072 93.3344 7.768C94.0864 7.464 94.8704 7.312 95.6864 7.312C96.5024 7.312 97.2784 7.464 98.0144 7.768C98.7664 8.072 99.4144 8.504 99.9584 9.064C100.47 9.592 100.894 10.272 101.23 11.104C101.582 11.936 101.758 12.744 101.758 13.528L101.734 13.912H90.7664ZM95.6864 8.392C94.4704 8.392 93.4144 8.792 92.5184 9.592C91.6064 10.392 91.0224 11.456 90.7664 12.784H100.606C100.35 11.456 99.7664 10.392 98.8544 9.592C97.9584 8.792 96.9024 8.392 95.6864 8.392Z" fill="#131200"/>
<path d="M109.539 19.408C108.707 19.408 107.923 19.256 107.187 18.952C106.467 18.632 105.819 18.192 105.243 17.632C104.683 17.088 104.243 16.448 103.923 15.712C103.603 14.96 103.443 14.176 103.443 13.36C103.443 12.544 103.603 11.768 103.923 11.032C104.243 10.28 104.683 9.632 105.243 9.088C105.819 8.528 106.467 8.096 107.187 7.792C107.923 7.472 108.707 7.312 109.539 7.312C110.387 7.312 111.179 7.472 111.915 7.792C112.667 8.112 113.331 8.568 113.907 9.16L112.923 9.736C112.475 9.304 111.963 8.976 111.387 8.752C110.811 8.528 110.195 8.416 109.539 8.416C108.867 8.416 108.227 8.544 107.619 8.8C107.027 9.056 106.499 9.408 106.035 9.856C105.571 10.304 105.203 10.832 104.931 11.44C104.675 12.048 104.547 12.688 104.547 13.36C104.547 14.032 104.675 14.672 104.931 15.28C105.203 15.888 105.571 16.416 106.035 16.864C106.499 17.312 107.027 17.664 107.619 17.92C108.227 18.176 108.867 18.304 109.539 18.304C110.195 18.304 110.811 18.192 111.387 17.968C111.963 17.744 112.475 17.416 112.923 16.984L113.907 17.56C113.331 18.152 112.667 18.608 111.915 18.928C111.179 19.248 110.387 19.408 109.539 19.408Z" fill="#131200"/>
<path d="M121.188 19.408C120.356 19.408 119.572 19.256 118.836 18.952C118.116 18.632 117.468 18.192 116.892 17.632C116.332 17.088 115.892 16.448 115.572 15.712C115.252 14.96 115.091 14.176 115.091 13.36C115.091 12.544 115.252 11.768 115.572 11.032C115.892 10.28 116.332 9.632 116.892 9.088C117.468 8.528 118.116 8.096 118.836 7.792C119.572 7.472 120.356 7.312 121.188 7.312C122.036 7.312 122.827 7.472 123.563 7.792C124.315 8.112 124.98 8.568 125.556 9.16L124.572 9.736C124.124 9.304 123.611 8.976 123.035 8.752C122.459 8.528 121.844 8.416 121.188 8.416C120.516 8.416 119.876 8.544 119.268 8.8C118.676 9.056 118.148 9.408 117.684 9.856C117.22 10.304 116.851 10.832 116.579 11.44C116.323 12.048 116.196 12.688 116.196 13.36C116.196 14.032 116.323 14.672 116.579 15.28C116.851 15.888 117.22 16.416 117.684 16.864C118.148 17.312 118.676 17.664 119.268 17.92C119.876 18.176 120.516 18.304 121.188 18.304C121.844 18.304 122.459 18.192 123.035 17.968C123.611 17.744 124.124 17.416 124.572 16.984L125.556 17.56C124.98 18.152 124.315 18.608 123.563 18.928C122.827 19.248 122.036 19.408 121.188 19.408Z" fill="#131200"/>
<path d="M137.756 19.288V16.528C137.148 17.52 136.428 18.248 135.596 18.712C134.78 19.176 133.844 19.408 132.788 19.408C131.956 19.408 131.172 19.256 130.436 18.952C129.716 18.648 129.076 18.216 128.516 17.656C127.956 17.112 127.516 16.472 127.196 15.736C126.892 14.984 126.74 14.2 126.74 13.384C126.74 12.568 126.892 11.792 127.196 11.056C127.516 10.304 127.956 9.648 128.516 9.088C129.076 8.528 129.716 8.096 130.436 7.792C131.172 7.488 131.956 7.336 132.788 7.336C133.94 7.336 134.932 7.56 135.764 8.008C136.612 8.456 137.276 9.12 137.756 10V7.624H138.86V19.288H137.756ZM132.788 8.416C132.116 8.416 131.468 8.544 130.844 8.8C130.236 9.056 129.708 9.408 129.26 9.856C128.812 10.304 128.46 10.84 128.204 11.464C127.948 12.072 127.82 12.712 127.82 13.384C127.82 14.056 127.948 14.696 128.204 15.304C128.46 15.912 128.812 16.44 129.26 16.888C129.708 17.336 130.236 17.688 130.844 17.944C131.468 18.2 132.116 18.328 132.788 18.328C133.444 18.328 134.076 18.2 134.684 17.944C135.292 17.688 135.82 17.336 136.268 16.888C136.716 16.44 137.068 15.912 137.324 15.304C137.596 14.696 137.732 14.056 137.732 13.384C137.732 12.712 137.604 12.072 137.348 11.464C137.092 10.84 136.74 10.304 136.292 9.856C135.844 9.408 135.316 9.056 134.708 8.8C134.1 8.544 133.46 8.416 132.788 8.416Z" fill="#131200"/>
<path d="M2.352 67.84C0.56 67.84 -0.208 66.944 0.048 65.152C0.56 61.9093 1.456 58.6667 2.736 55.424C3.41867 53.7173 4.272 51.7547 5.296 49.536C6.40533 47.3173 7.68533 44.8427 9.136 42.112C9.904 40.6613 10.544 39.3813 11.056 38.272C11.6533 37.1627 12.1227 36.2667 12.464 35.584C13.0613 34.3893 13.6587 33.1093 14.256 31.744C14.9387 30.3787 15.6213 28.8853 16.304 27.264C19.5467 20.1813 22.32 14.6347 24.624 10.624C27.0133 6.528 29.5733 3.62667 32.304 1.92C32.4747 1.74933 32.944 1.74933 33.712 1.92C34.48 2.00533 35.2053 2.176 35.888 2.432C36.656 2.688 37.1253 2.98667 37.296 3.328C37.552 3.92533 37.68 4.77867 37.68 5.888C37.68 9.30133 36.1013 13.3973 32.944 18.176C31.2373 20.736 29.0613 23.552 26.416 26.624C23.856 29.6107 20.8267 32.8533 17.328 36.352L15.024 40.064C12.464 44.16 10.4587 47.6587 9.008 50.56C7.64267 53.4613 7.13067 56.0213 7.472 58.24C7.64267 58.752 7.856 59.008 8.112 59.008C8.368 59.008 8.79467 58.7947 9.392 58.368C9.98933 57.9413 10.5867 57.4293 11.184 56.832C11.8667 56.2347 12.5067 55.5093 13.104 54.656C13.5307 54.2293 13.872 53.76 14.128 53.248C14.4693 52.736 14.8107 52.2667 15.152 51.84C15.664 50.9013 16.176 50.1333 16.688 49.536C18.3093 46.8053 19.6747 44.8853 20.784 43.776C22.6613 41.8987 24.3253 40.96 25.776 40.96C27.4827 40.96 28.976 41.8987 30.256 43.776C31.6213 45.568 33.072 48.1707 34.608 51.584C35.7173 54.144 36.7413 56.1067 37.68 57.472C38.6187 58.752 39.5147 59.392 40.368 59.392C41.2213 59.392 42.2027 58.88 43.312 57.856C44.336 56.9173 45.232 56.4053 46 56.32C46.512 56.9173 46.4693 57.6853 45.872 58.624C45.2747 59.4773 44.3787 60.288 43.184 61.056C42.0747 61.9093 40.9653 62.592 39.856 63.104C38.7467 63.616 37.8933 63.7867 37.296 63.616C34.9067 62.9333 33.0293 61.7387 31.664 60.032C30.384 58.24 29.104 55.936 27.824 53.12C27.3973 52.1813 27.0133 51.3707 26.672 50.688C26.3307 49.92 25.9893 49.3227 25.648 48.896C25.0507 48.0427 24.24 47.616 23.216 47.616C22.448 47.616 21.552 48 20.528 48.768C19.504 49.6213 18.48 50.6453 17.456 51.84C16.432 52.9493 15.4507 54.3147 14.512 55.936C13.9147 56.7893 13.4453 57.472 13.104 57.984C12.848 58.4107 12.6347 58.7093 12.464 58.88C12.0373 59.4773 11.3547 60.3307 10.416 61.44C9.56267 62.6347 8.53867 64.0853 7.344 65.792C6.91733 66.304 6.23467 66.7733 5.296 67.2C4.44267 67.6267 3.58933 67.84 2.736 67.84H2.352ZM17.968 31.104C18.224 31.2747 18.864 30.8907 19.888 29.952C20.912 28.928 22.064 27.648 23.344 26.112C24.7093 24.4907 26.032 22.8267 27.312 21.12C28.6773 19.328 29.744 17.7493 30.512 16.384C33.1573 11.8613 34.48 8.87467 34.48 7.424C34.48 6.82667 34.2667 6.4 33.84 6.144C32.9867 5.46133 31.8347 5.84533 30.384 7.296C28.9333 8.66133 27.4827 10.496 26.032 12.8C24.5813 15.0187 23.344 17.2373 22.32 19.456C21.7227 20.8213 21.0827 22.3573 20.4 24.064C19.8027 25.7707 19.2907 27.3067 18.864 28.672C18.4373 29.952 18.1387 30.7627 17.968 31.104Z" fill="#131200"/>
<path d="M56.044 61.696C54.252 61.696 52.6733 61.2267 51.308 60.288C49.0893 58.5813 47.98 56.0213 47.98 52.608C47.98 49.1947 49.1747 45.568 51.564 41.728C53.9533 37.888 57.58 34.3467 62.444 31.104C63.2973 30.5067 64.4493 30.208 65.9 30.208C67.7773 30.208 69.4413 30.72 70.892 31.744C72.428 32.768 73.0253 34.0907 72.684 35.712C72.0867 38.3573 70.764 40.704 68.716 42.752C66.7533 44.8 64.4067 46.6347 61.676 48.256C59.0307 49.792 56.3 51.2853 53.484 52.736C53.3987 52.992 53.3133 53.248 53.228 53.504C53.228 53.76 53.228 54.016 53.228 54.272C53.228 55.4667 53.612 56.5333 54.38 57.472C55.2333 58.3253 56.3853 58.752 57.836 58.752C58.9453 58.752 59.884 58.5813 60.652 58.24C62.0173 57.728 63.1267 57.2587 63.98 56.832C64.9187 56.4053 65.9853 55.7653 67.18 54.912C68.3747 54.0587 69.996 52.7787 72.044 51.072C72.9827 50.3893 73.5373 50.048 73.708 50.048C74.22 50.048 74.3907 50.432 74.22 51.2C73.3667 52.5653 71.8733 54.0587 69.74 55.68C67.692 57.3013 65.388 58.7093 62.828 59.904C60.3533 61.0987 58.092 61.696 56.044 61.696ZM54.252 49.28C54.9347 49.28 56.3427 48.5973 58.476 47.232C60.6093 45.8667 62.6147 44.3733 64.492 42.752C67.7347 39.7653 69.356 37.4613 69.356 35.84C69.356 35.4133 69.228 35.0293 68.972 34.688C68.716 34.2613 68.332 34.048 67.82 34.048C66.1987 34.048 63.468 35.968 59.628 39.808C56.9827 42.368 55.1907 45.5253 54.252 49.28Z" fill="#131200"/>
<path d="M74.763 62.336C73.227 62.336 72.459 61.7387 72.459 60.544C72.459 59.776 72.715 58.7947 73.227 57.6C73.8243 56.4053 74.4217 55.2533 75.019 54.144C76.6403 51.2427 78.1337 48.4267 79.499 45.696C80.8643 42.9653 82.187 40.064 83.467 36.992C84.0643 35.6267 84.9603 34.944 86.155 34.944C87.435 34.944 87.819 35.712 87.307 37.248C86.795 38.528 86.283 39.68 85.771 40.704C83.3817 45.568 82.187 48.8533 82.187 50.56C82.187 51.328 82.443 51.7973 82.955 51.968C84.1497 51.0293 85.0457 50.3467 85.643 49.92C86.2403 49.408 86.5817 49.1093 86.667 49.024C87.8617 48.0853 89.1843 47.0187 90.635 45.824C92.171 44.544 93.835 43.0933 95.627 41.472C98.443 38.912 100.79 37.632 102.667 37.632C104.971 37.632 105.952 39.7227 105.611 43.904C105.526 45.5253 105.526 47.104 105.611 48.64C105.696 48.9813 105.739 49.4933 105.739 50.176C105.739 50.7733 105.739 51.4987 105.739 52.352C105.739 53.2053 106.251 53.632 107.275 53.632C108.47 53.632 109.579 53.2907 110.603 52.608L113.419 50.688L116.235 48.896C116.406 48.8107 116.704 48.768 117.131 48.768C117.643 48.768 117.643 49.152 117.131 49.92C111.755 56.576 107.318 59.904 103.819 59.904C103.136 59.904 102.454 59.776 101.771 59.52C101.174 59.264 100.747 58.5387 100.491 57.344C100.235 56.064 100.064 54.6987 99.979 53.248C99.979 51.7973 99.979 50.688 99.979 49.92L100.107 45.696C100.107 43.904 99.6377 43.008 98.699 43.008C96.4803 43.008 91.019 47.5733 82.315 56.704C81.6323 57.5573 80.5657 58.7093 79.115 60.16C77.6643 61.6107 76.2137 62.336 74.763 62.336Z" fill="#131200"/>
<path d="M141.877 69.888C140.597 69.888 139.658 69.248 139.061 67.968C138.976 67.8827 138.933 67.6267 138.933 67.2C138.933 66.7733 139.146 65.792 139.573 64.256C139.744 63.8293 139.872 63.4027 139.957 62.976C140.128 62.5493 140.298 62.1227 140.469 61.696C140.64 61.2693 140.81 60.8 140.981 60.288C141.152 59.6907 141.322 59.0933 141.493 58.496C141.834 57.216 142.005 56.1493 142.005 55.296C142.005 54.1013 141.621 53.504 140.853 53.504C140.597 53.504 140.128 53.7173 139.445 54.144C138.336 54.9973 137.141 55.808 135.861 56.576C134.666 57.344 133.386 58.0693 132.021 58.752L127.925 60.928L125.237 62.464C124.981 62.5493 124.384 62.9333 123.445 63.616C122.592 64.128 121.696 64.384 120.757 64.384C119.648 64.384 118.41 63.7867 117.045 62.592C116.021 61.568 115.509 60.5013 115.509 59.392C115.509 58.4533 115.978 57.1307 116.917 55.424C117.6 54.3147 118.752 52.9493 120.373 51.328C121.056 50.6453 121.61 50.048 122.037 49.536C122.549 48.9387 122.976 48.4693 123.317 48.128C126.901 43.3493 132.448 39.1253 139.957 35.456C142.09 34.3467 144.01 33.792 145.717 33.792C147.594 33.792 149.088 34.56 150.197 36.096C150.709 35.072 151.52 33.6213 152.629 31.744C153.824 29.7813 155.104 27.648 156.469 25.344C157.92 23.04 159.285 20.864 160.565 18.816C161.93 16.768 162.997 15.1893 163.765 14.08C166.069 10.9227 167.946 8.53333 169.397 6.912C170.848 5.376 172.17 4.608 173.365 4.608C173.792 4.608 174.346 4.82133 175.029 5.248C175.626 5.76 175.925 6.44267 175.925 7.296C175.925 8.576 175.37 10.0693 174.261 11.776C173.152 13.4827 171.616 15.5733 169.653 18.048C169.482 18.304 169.226 18.6453 168.885 19.072C168.544 19.4133 168.16 19.8827 167.733 20.48C166.794 21.8453 165.813 23.296 164.789 24.832C163.765 26.2827 162.656 27.7333 161.461 29.184C159.754 31.4027 157.962 33.8347 156.085 36.48C154.208 39.04 152.458 41.728 150.837 44.544C149.386 47.104 148.149 49.7493 147.125 52.48C146.101 55.1253 145.248 57.8133 144.565 60.544C144.48 61.1413 144.394 61.6107 144.309 61.952C144.309 62.3787 144.309 62.6773 144.309 62.848L144.437 64.768C144.522 65.024 144.565 65.6213 144.565 66.56C144.565 68.7787 143.669 69.888 141.877 69.888ZM124.341 58.88C125.28 58.88 126.133 58.7093 126.901 58.368C130.144 57.2587 133.216 55.8507 136.117 54.144C139.018 52.4373 142.09 50.1333 145.333 47.232C145.76 46.0373 146.272 44.7573 146.869 43.392C147.466 42.0267 148.106 40.5333 148.789 38.912C147.765 36.7787 146.272 35.712 144.309 35.712C143.029 35.712 141.664 36.1387 140.213 36.992C138.762 37.8453 137.141 38.9973 135.349 40.448C133.642 41.8133 131.893 43.3493 130.101 45.056C128.394 46.7627 126.901 48.4267 125.621 50.048C124.341 51.584 123.445 52.864 122.933 53.888C122.421 54.7413 122.165 55.7227 122.165 56.832C122.165 58.1973 122.89 58.88 124.341 58.88Z" fill="#131200"/>
<path d="M163.669 61.696C161.877 61.696 160.298 61.2267 158.933 60.288C156.714 58.5813 155.605 56.0213 155.605 52.608C155.605 49.1947 156.8 45.568 159.189 41.728C161.578 37.888 165.205 34.3467 170.069 31.104C170.922 30.5067 172.074 30.208 173.525 30.208C175.402 30.208 177.066 30.72 178.517 31.744C180.053 32.768 180.65 34.0907 180.309 35.712C179.712 38.3573 178.389 40.704 176.341 42.752C174.378 44.8 172.032 46.6347 169.301 48.256C166.656 49.792 163.925 51.2853 161.109 52.736C161.024 52.992 160.938 53.248 160.853 53.504C160.853 53.76 160.853 54.016 160.853 54.272C160.853 55.4667 161.237 56.5333 162.005 57.472C162.858 58.3253 164.01 58.752 165.461 58.752C166.57 58.752 167.509 58.5813 168.277 58.24C169.642 57.728 170.752 57.2587 171.605 56.832C172.544 56.4053 173.61 55.7653 174.805 54.912C176 54.0587 177.621 52.7787 179.669 51.072C180.608 50.3893 181.162 50.048 181.333 50.048C181.845 50.048 182.016 50.432 181.845 51.2C180.992 52.5653 179.498 54.0587 177.365 55.68C175.317 57.3013 173.013 58.7093 170.453 59.904C167.978 61.0987 165.717 61.696 163.669 61.696ZM161.877 49.28C162.56 49.28 163.968 48.5973 166.101 47.232C168.234 45.8667 170.24 44.3733 172.117 42.752C175.36 39.7653 176.981 37.4613 176.981 35.84C176.981 35.4133 176.853 35.0293 176.597 34.688C176.341 34.2613 175.957 34.048 175.445 34.048C173.824 34.048 171.093 35.968 167.253 39.808C164.608 42.368 162.816 45.5253 161.877 49.28Z" fill="#131200"/>
<path d="M182.132 68.736C181.193 68.736 180.383 68.4373 179.7 67.84C179.103 67.2427 178.847 66.5173 178.932 65.664C179.103 62.1653 179.743 58.7947 180.852 55.552C182.047 52.3093 183.753 48.4267 185.972 43.904C186.228 43.3067 186.441 42.7947 186.612 42.368C186.868 41.856 187.081 41.4293 187.252 41.088C189.129 37.0773 191.049 33.2373 193.012 29.568C194.975 25.8987 196.937 22.3147 198.9 18.816L200.692 15.616C202.74 11.9467 204.532 9.00267 206.068 6.784C207.604 4.48 209.14 2.816 210.676 1.792C212.639 0.597333 213.833 0 214.26 0C214.943 0 215.625 0.597333 216.308 1.792C216.735 2.64533 215.881 4.736 213.748 8.064C212.639 9.77067 211.231 11.904 209.524 14.464C207.903 17.024 205.94 19.9253 203.636 23.168C203.209 23.7653 202.484 24.832 201.46 26.368C200.521 27.8187 199.241 29.7387 197.62 32.128C195.999 34.5173 194.591 36.6933 193.396 38.656C192.201 40.5333 191.22 42.1973 190.452 43.648C188.916 46.464 187.465 49.4933 186.1 52.736C184.735 55.8933 184.052 58.368 184.052 60.16C184.052 61.7813 184.692 62.592 185.972 62.592C188.02 62.592 191.305 60.8427 195.828 57.344C196.34 57.4293 196.596 57.6853 196.596 58.112C196.596 58.4533 196.169 59.0507 195.316 59.904C194.548 60.672 193.567 61.4827 192.372 62.336C191.263 63.2747 189.94 64.3413 188.404 65.536L186.356 67.072C184.991 68.1813 183.583 68.736 182.132 68.736Z" fill="#131200"/>
</svg>
