<svg width="217" height="71" viewBox="0 0 217 71" fill="none" xmlns="http://www.w3.org/2000/svg">
<path d="M56.1782 19.9999V8.44992H57.6742V11.5959L57.5202 11.0459C57.8428 10.1659 58.3855 9.49858 59.1482 9.04392C59.9108 8.57458 60.8568 8.33992 61.9862 8.33992V9.85792C61.9275 9.85792 61.8688 9.85792 61.8102 9.85792C61.7515 9.84325 61.6928 9.83592 61.6342 9.83592C60.4168 9.83592 59.4635 10.2099 58.7742 10.9579C58.0848 11.6912 57.7402 12.7399 57.7402 14.1039V19.9999H56.1782Z" fill="black"/>
<path d="M69.6349 20.1099C68.4323 20.1099 67.3763 19.8606 66.4669 19.3619C65.5576 18.8486 64.8463 18.1519 64.3329 17.2719C63.8196 16.3772 63.5629 15.3579 63.5629 14.2139C63.5629 13.0699 63.8049 12.0579 64.2889 11.1779C64.7876 10.2979 65.4623 9.60858 66.3129 9.10992C67.1783 8.59658 68.1463 8.33992 69.2169 8.33992C70.3023 8.33992 71.2629 8.58925 72.0989 9.08792C72.9496 9.57192 73.6169 10.2612 74.1009 11.1559C74.5849 12.0359 74.8269 13.0552 74.8269 14.2139C74.8269 14.2872 74.8196 14.3679 74.8049 14.4559C74.8049 14.5292 74.8049 14.6099 74.8049 14.6979H64.7509V13.5319H73.9689L73.3529 13.9939C73.3529 13.1579 73.1696 12.4172 72.8029 11.7719C72.4509 11.1119 71.9669 10.5986 71.3509 10.2319C70.7349 9.86525 70.0236 9.68192 69.2169 9.68192C68.4249 9.68192 67.7136 9.86525 67.0829 10.2319C66.4523 10.5986 65.9609 11.1119 65.6089 11.7719C65.2569 12.4319 65.0809 13.1872 65.0809 14.0379V14.2799C65.0809 15.1599 65.2716 15.9372 65.6529 16.6119C66.0489 17.2719 66.5916 17.7926 67.2809 18.1739C67.9849 18.5406 68.7843 18.7239 69.6789 18.7239C70.3829 18.7239 71.0356 18.5992 71.6369 18.3499C72.2529 18.1006 72.7809 17.7192 73.2209 17.2059L74.1009 18.2179C73.5876 18.8339 72.9423 19.3032 72.1649 19.6259C71.4023 19.9486 70.5589 20.1099 69.6349 20.1099Z" fill="black"/>
<path d="M83.9683 20.1099C82.9563 20.1099 82.0469 19.8826 81.2403 19.4279C80.4336 18.9586 79.7956 18.2839 79.3263 17.4039C78.8569 16.5239 78.6223 15.4606 78.6223 14.2139C78.6223 12.9526 78.8569 11.8892 79.3263 11.0239C79.8103 10.1439 80.4556 9.47658 81.2623 9.02192C82.0689 8.56725 82.9709 8.33992 83.9683 8.33992C85.0683 8.33992 86.0509 8.58925 86.9163 9.08792C87.7963 9.57192 88.4856 10.2539 88.9843 11.1339C89.4829 12.0139 89.7323 13.0406 89.7323 14.2139C89.7323 15.3726 89.4829 16.3992 88.9843 17.2939C88.4856 18.1739 87.7963 18.8632 86.9163 19.3619C86.0509 19.8606 85.0683 20.1099 83.9683 20.1099ZM78.0063 19.9999V3.67592H79.5683V11.8599L79.3483 14.1919L79.5023 16.5239V19.9999H78.0063ZM83.8583 18.7239C84.6796 18.7239 85.4129 18.5406 86.0583 18.1739C86.7036 17.7926 87.2169 17.2646 87.5983 16.5899C87.9796 15.9006 88.1703 15.1086 88.1703 14.2139C88.1703 13.3046 87.9796 12.5126 87.5983 11.8379C87.2169 11.1632 86.7036 10.6426 86.0583 10.2759C85.4129 9.89458 84.6796 9.70392 83.8583 9.70392C83.0369 9.70392 82.2963 9.89458 81.6363 10.2759C80.9909 10.6426 80.4776 11.1632 80.0963 11.8379C79.7296 12.5126 79.5463 13.3046 79.5463 14.2139C79.5463 15.1086 79.7296 15.9006 80.0963 16.5899C80.4776 17.2646 80.9909 17.7926 81.6363 18.1739C82.2963 18.5406 83.0369 18.7239 83.8583 18.7239Z" fill="black"/>
<path d="M97.8224 20.1099C96.6198 20.1099 95.5638 19.8606 94.6544 19.3619C93.7451 18.8486 93.0338 18.1519 92.5204 17.2719C92.0071 16.3772 91.7504 15.3579 91.7504 14.2139C91.7504 13.0699 91.9924 12.0579 92.4764 11.1779C92.9751 10.2979 93.6498 9.60858 94.5004 9.10992C95.3658 8.59658 96.3338 8.33992 97.4044 8.33992C98.4898 8.33992 99.4504 8.58925 100.286 9.08792C101.137 9.57192 101.804 10.2612 102.288 11.1559C102.772 12.0359 103.014 13.0552 103.014 14.2139C103.014 14.2872 103.007 14.3679 102.992 14.4559C102.992 14.5292 102.992 14.6099 102.992 14.6979H92.9384V13.5319H102.156L101.54 13.9939C101.54 13.1579 101.357 12.4172 100.99 11.7719C100.638 11.1119 100.154 10.5986 99.5384 10.2319C98.9224 9.86525 98.2111 9.68192 97.4044 9.68192C96.6124 9.68192 95.9011 9.86525 95.2704 10.2319C94.6398 10.5986 94.1484 11.1119 93.7964 11.7719C93.4444 12.4319 93.2684 13.1872 93.2684 14.0379V14.2799C93.2684 15.1599 93.4591 15.9372 93.8404 16.6119C94.2364 17.2719 94.7791 17.7926 95.4684 18.1739C96.1724 18.5406 96.9718 18.7239 97.8664 18.7239C98.5704 18.7239 99.2231 18.5992 99.8244 18.3499C100.44 18.1006 100.968 17.7192 101.408 17.2059L102.288 18.2179C101.775 18.8339 101.13 19.3032 100.352 19.6259C99.5898 19.9486 98.7464 20.1099 97.8224 20.1099Z" fill="black"/>
<path d="M110.99 20.1099C109.846 20.1099 108.819 19.8606 107.91 19.3619C107.015 18.8486 106.311 18.1519 105.798 17.2719C105.284 16.3772 105.028 15.3579 105.028 14.2139C105.028 13.0552 105.284 12.0359 105.798 11.1559C106.311 10.2759 107.015 9.58658 107.91 9.08792C108.819 8.58925 109.846 8.33992 110.99 8.33992C111.972 8.33992 112.86 8.53058 113.652 8.91192C114.444 9.29325 115.067 9.86525 115.522 10.6279L114.356 11.4199C113.96 10.8332 113.468 10.4006 112.882 10.1219C112.295 9.84325 111.657 9.70392 110.968 9.70392C110.146 9.70392 109.406 9.89458 108.746 10.2759C108.086 10.6426 107.565 11.1632 107.184 11.8379C106.802 12.5126 106.612 13.3046 106.612 14.2139C106.612 15.1232 106.802 15.9152 107.184 16.5899C107.565 17.2646 108.086 17.7926 108.746 18.1739C109.406 18.5406 110.146 18.7239 110.968 18.7239C111.657 18.7239 112.295 18.5846 112.882 18.3059C113.468 18.0272 113.96 17.6019 114.356 17.0299L115.522 17.8219C115.067 18.5699 114.444 19.1419 113.652 19.5379C112.86 19.9192 111.972 20.1099 110.99 20.1099Z" fill="black"/>
<path d="M123.193 20.1099C122.049 20.1099 121.022 19.8606 120.113 19.3619C119.218 18.8486 118.514 18.1519 118.001 17.2719C117.488 16.3772 117.231 15.3579 117.231 14.2139C117.231 13.0552 117.488 12.0359 118.001 11.1559C118.514 10.2759 119.218 9.58658 120.113 9.08792C121.022 8.58925 122.049 8.33992 123.193 8.33992C124.176 8.33992 125.063 8.53058 125.855 8.91192C126.647 9.29325 127.27 9.86525 127.725 10.6279L126.559 11.4199C126.163 10.8332 125.672 10.4006 125.085 10.1219C124.498 9.84325 123.86 9.70392 123.171 9.70392C122.35 9.70392 121.609 9.89458 120.949 10.2759C120.289 10.6426 119.768 11.1632 119.387 11.8379C119.006 12.5126 118.815 13.3046 118.815 14.2139C118.815 15.1232 119.006 15.9152 119.387 16.5899C119.768 17.2646 120.289 17.7926 120.949 18.1739C121.609 18.5406 122.35 18.7239 123.171 18.7239C123.86 18.7239 124.498 18.5846 125.085 18.3059C125.672 18.0272 126.163 17.6019 126.559 17.0299L127.725 17.8219C127.27 18.5699 126.647 19.1419 125.855 19.5379C125.063 19.9192 124.176 20.1099 123.193 20.1099Z" fill="black"/>
<path d="M138.031 19.9999V17.4479L137.965 17.0299V12.7619C137.965 11.7792 137.687 11.0239 137.129 10.4959C136.587 9.96792 135.773 9.70392 134.687 9.70392C133.939 9.70392 133.228 9.82858 132.553 10.0779C131.879 10.3272 131.307 10.6572 130.837 11.0679L130.133 9.90192C130.72 9.40325 131.424 9.02192 132.245 8.75792C133.067 8.47925 133.932 8.33992 134.841 8.33992C136.337 8.33992 137.489 8.71392 138.295 9.46192C139.117 10.1952 139.527 11.3172 139.527 12.8279V19.9999H138.031ZM134.049 20.1099C133.184 20.1099 132.429 19.9706 131.783 19.6919C131.153 19.3986 130.669 19.0026 130.331 18.5039C129.994 17.9906 129.825 17.4039 129.825 16.7439C129.825 16.1426 129.965 15.5999 130.243 15.1159C130.537 14.6172 131.006 14.2212 131.651 13.9279C132.311 13.6199 133.191 13.4659 134.291 13.4659H138.273V14.6319H134.335C133.221 14.6319 132.443 14.8299 132.003 15.2259C131.578 15.6219 131.365 16.1132 131.365 16.6999C131.365 17.3599 131.622 17.8879 132.135 18.2839C132.649 18.6799 133.367 18.8779 134.291 18.8779C135.171 18.8779 135.927 18.6799 136.557 18.2839C137.203 17.8732 137.672 17.2866 137.965 16.5239L138.317 17.6019C138.024 18.3646 137.511 18.9732 136.777 19.4279C136.059 19.8826 135.149 20.1099 134.049 20.1099Z" fill="black"/>
<path d="M2.40815 68.5519C0.616152 68.5519 -0.151848 67.6559 0.104152 65.8639C0.616152 62.6212 1.51215 59.3786 2.79215 56.1359C3.47482 54.4293 4.32815 52.4666 5.35215 50.2479C6.46149 48.0293 7.74149 45.5546 9.19215 42.8239C9.96015 41.3732 10.6002 40.0933 11.1122 38.9839C11.7095 37.8746 12.1788 36.9786 12.5202 36.2959C13.1175 35.1012 13.7148 33.8212 14.3122 32.4559C14.9948 31.0906 15.6775 29.5972 16.3602 27.9759C19.6028 20.8932 22.3762 15.3466 24.6802 11.3359C27.0695 7.23991 29.6295 4.33858 32.3602 2.63191C32.5308 2.46125 33.0002 2.46125 33.7682 2.63191C34.5362 2.71725 35.2615 2.88791 35.9442 3.14391C36.7122 3.39991 37.1815 3.69858 37.3522 4.03991C37.6082 4.63725 37.7362 5.49058 37.7362 6.59991C37.7362 10.0132 36.1575 14.1092 33.0002 18.8879C31.2935 21.4479 29.1175 24.2639 26.4722 27.3359C23.9122 30.3226 20.8828 33.5652 17.3842 37.0639L15.0802 40.7759C12.5202 44.8719 10.5148 48.3706 9.06415 51.2719C7.69882 54.1732 7.18682 56.7332 7.52815 58.9519C7.69882 59.4639 7.91215 59.7199 8.16815 59.7199C8.42415 59.7199 8.85082 59.5066 9.44815 59.0799C10.0455 58.6533 10.6428 58.1412 11.2402 57.5439C11.9228 56.9466 12.5628 56.2212 13.1602 55.3679C13.5868 54.9412 13.9282 54.4719 14.1842 53.9599C14.5255 53.4479 14.8668 52.9786 15.2082 52.5519C15.7202 51.6133 16.2322 50.8453 16.7442 50.2479C18.3655 47.5173 19.7308 45.5972 20.8402 44.4879C22.7175 42.6106 24.3815 41.6719 25.8322 41.6719C27.5388 41.6719 29.0322 42.6106 30.3122 44.4879C31.6775 46.2799 33.1282 48.8826 34.6642 52.2959C35.7735 54.8559 36.7975 56.8186 37.7362 58.1839C38.6748 59.4639 39.5708 60.1039 40.4242 60.1039C41.2775 60.1039 42.2588 59.5919 43.3682 58.5679C44.3922 57.6293 45.2882 57.1173 46.0562 57.0319C46.5682 57.6293 46.5255 58.3972 45.9282 59.3359C45.3308 60.1892 44.4348 60.9999 43.2402 61.7679C42.1308 62.6213 41.0215 63.3039 39.9122 63.8159C38.8028 64.3279 37.9495 64.4986 37.3522 64.3279C34.9628 63.6452 33.0855 62.4506 31.7202 60.7439C30.4402 58.9519 29.1602 56.6479 27.8802 53.8319C27.4535 52.8933 27.0695 52.0826 26.7282 51.3999C26.3868 50.6319 26.0455 50.0346 25.7042 49.6079C25.1068 48.7546 24.2962 48.3279 23.2722 48.3279C22.5042 48.3279 21.6082 48.7119 20.5842 49.4799C19.5602 50.3332 18.5362 51.3573 17.5122 52.5519C16.4882 53.6613 15.5068 55.0266 14.5682 56.6479C13.9708 57.5012 13.5015 58.1839 13.1602 58.6959C12.9042 59.1226 12.6908 59.4212 12.5202 59.5919C12.0935 60.1892 11.4108 61.0426 10.4722 62.1519C9.61882 63.3466 8.59482 64.7972 7.40015 66.5039C6.97349 67.0159 6.29082 67.4853 5.35215 67.9119C4.49882 68.3386 3.64549 68.5519 2.79215 68.5519H2.40815ZM18.0242 31.8159C18.2802 31.9866 18.9202 31.6026 19.9442 30.6639C20.9682 29.6399 22.1202 28.3599 23.4002 26.8239C24.7655 25.2026 26.0882 23.5386 27.3682 21.8319C28.7335 20.0399 29.8002 18.4612 30.5682 17.0959C33.2135 12.5732 34.5362 9.58658 34.5362 8.13591C34.5362 7.53858 34.3228 7.11191 33.8962 6.85592C33.0428 6.17325 31.8908 6.55725 30.4402 8.00791C28.9895 9.37325 27.5388 11.2079 26.0882 13.5119C24.6375 15.7306 23.4002 17.9492 22.3762 20.1679C21.7788 21.5332 21.1388 23.0692 20.4562 24.7759C19.8588 26.4826 19.3468 28.0186 18.9202 29.3839C18.4935 30.6639 18.1948 31.4746 18.0242 31.8159Z" fill="black"/>
<path d="M56.1002 62.4079C54.3082 62.4079 52.7295 61.9386 51.3642 60.9999C49.1455 59.2932 48.0362 56.7332 48.0362 53.3199C48.0362 49.9066 49.2308 46.2799 51.6202 42.4399C54.0095 38.5999 57.6362 35.0586 62.5002 31.8159C63.3535 31.2186 64.5055 30.9199 65.9562 30.9199C67.8335 30.9199 69.4975 31.4319 70.9482 32.4559C72.4841 33.4799 73.0815 34.8026 72.7402 36.4239C72.1428 39.0692 70.8202 41.4159 68.7722 43.4639C66.8095 45.5119 64.4628 47.3466 61.7322 48.9679C59.0868 50.5039 56.3562 51.9972 53.5402 53.4479C53.4548 53.7039 53.3695 53.9599 53.2842 54.2159C53.2842 54.4719 53.2842 54.7279 53.2842 54.9839C53.2842 56.1786 53.6682 57.2452 54.4362 58.1839C55.2895 59.0372 56.4415 59.4639 57.8922 59.4639C59.0015 59.4639 59.9402 59.2932 60.7082 58.9519C62.0735 58.4399 63.1828 57.9706 64.0362 57.5439C64.9748 57.1172 66.0415 56.4773 67.2362 55.6239C68.4308 54.7706 70.0522 53.4906 72.1002 51.7839C73.0388 51.1012 73.5935 50.7599 73.7642 50.7599C74.2762 50.7599 74.4468 51.1439 74.2762 51.9119C73.4228 53.2772 71.9295 54.7706 69.7962 56.3919C67.7481 58.0132 65.4442 59.4213 62.8842 60.6159C60.4095 61.8106 58.1482 62.4079 56.1002 62.4079ZM54.3082 49.9919C54.9908 49.9919 56.3988 49.3092 58.5322 47.9439C60.6655 46.5786 62.6708 45.0852 64.5481 43.4639C67.7908 40.4772 69.4122 38.1732 69.4122 36.5519C69.4122 36.1252 69.2842 35.7413 69.0282 35.3999C68.7722 34.9733 68.3882 34.7599 67.8762 34.7599C66.2548 34.7599 63.5242 36.6799 59.6842 40.5199C57.0388 43.0799 55.2468 46.2372 54.3082 49.9919Z" fill="black"/>
<path d="M74.8192 63.0479C73.2832 63.0479 72.5152 62.4506 72.5152 61.2559C72.5152 60.4879 72.7711 59.5066 73.2831 58.3119C73.8805 57.1172 74.4778 55.9652 75.0751 54.8559C76.6965 51.9546 78.1898 49.1386 79.5552 46.4079C80.9205 43.6772 82.2432 40.7759 83.5232 37.7039C84.1205 36.3386 85.0165 35.6559 86.2112 35.6559C87.4912 35.6559 87.8752 36.4239 87.3632 37.9599C86.8512 39.2399 86.3392 40.3919 85.8272 41.4159C83.4378 46.2799 82.2431 49.5652 82.2431 51.2719C82.2431 52.0399 82.4992 52.5093 83.0112 52.6799C84.2058 51.7412 85.1018 51.0586 85.6992 50.6319C86.2965 50.1199 86.6378 49.8212 86.7232 49.7359C87.9178 48.7972 89.2405 47.7306 90.6912 46.5359C92.2272 45.2559 93.8912 43.8052 95.6832 42.1839C98.4992 39.6239 100.846 38.3439 102.723 38.3439C105.027 38.3439 106.008 40.4346 105.667 44.6159C105.582 46.2372 105.582 47.8159 105.667 49.3519C105.752 49.6932 105.795 50.2052 105.795 50.8879C105.795 51.4852 105.795 52.2106 105.795 53.0639C105.795 53.9172 106.307 54.3439 107.331 54.3439C108.526 54.3439 109.635 54.0026 110.659 53.3199L113.475 51.3999L116.291 49.6079C116.462 49.5226 116.76 49.4799 117.187 49.4799C117.699 49.4799 117.699 49.8639 117.187 50.6319C111.811 57.2879 107.374 60.6159 103.875 60.6159C103.192 60.6159 102.51 60.4879 101.827 60.2319C101.23 59.9759 100.803 59.2506 100.547 58.0559C100.291 56.7759 100.12 55.4106 100.035 53.9599C100.035 52.5092 100.035 51.3999 100.035 50.6319L100.163 46.4079C100.163 44.6159 99.6938 43.7199 98.7551 43.7199C96.5365 43.7199 91.0752 48.2852 82.3712 57.4159C81.6885 58.2692 80.6218 59.4213 79.1712 60.8719C77.7205 62.3226 76.2698 63.0479 74.8192 63.0479Z" fill="black"/>
<path d="M141.933 70.5999C140.653 70.5999 139.714 69.9599 139.117 68.6799C139.032 68.5946 138.989 68.3386 138.989 67.9119C138.989 67.4853 139.202 66.5039 139.629 64.9679C139.8 64.5413 139.928 64.1146 140.013 63.6879C140.184 63.2612 140.354 62.8346 140.525 62.4079C140.696 61.9813 140.866 61.5119 141.037 60.9999C141.208 60.4026 141.378 59.8052 141.549 59.2079C141.89 57.9279 142.061 56.8612 142.061 56.0079C142.061 54.8132 141.677 54.2159 140.909 54.2159C140.653 54.2159 140.184 54.4292 139.501 54.8559C138.392 55.7092 137.197 56.5199 135.917 57.2879C134.722 58.0559 133.442 58.7812 132.077 59.4639L127.981 61.6399L125.293 63.1759C125.037 63.2612 124.44 63.6452 123.501 64.3279C122.648 64.8399 121.752 65.0959 120.813 65.0959C119.704 65.0959 118.466 64.4986 117.101 63.3039C116.077 62.2799 115.565 61.2132 115.565 60.1039C115.565 59.1652 116.034 57.8426 116.973 56.1359C117.656 55.0266 118.808 53.6613 120.429 52.0399C121.112 51.3573 121.666 50.7599 122.093 50.2479C122.605 49.6506 123.032 49.1812 123.373 48.8399C126.957 44.0612 132.504 39.8372 140.013 36.1679C142.146 35.0586 144.066 34.5039 145.773 34.5039C147.65 34.5039 149.144 35.2719 150.253 36.8079C150.765 35.7839 151.576 34.3332 152.685 32.4559C153.88 30.4932 155.16 28.3599 156.525 26.0559C157.976 23.7519 159.341 21.5759 160.621 19.5279C161.986 17.4799 163.053 15.9012 163.821 14.7919C166.125 11.6346 168.002 9.24525 169.453 7.62391C170.904 6.08791 172.226 5.31991 173.421 5.31991C173.848 5.31991 174.402 5.53325 175.085 5.95992C175.682 6.47191 175.981 7.15458 175.981 8.00791C175.981 9.28791 175.426 10.7812 174.317 12.4879C173.208 14.1946 171.672 16.2852 169.709 18.7599C169.538 19.0159 169.282 19.3572 168.941 19.7839C168.6 20.1252 168.216 20.5946 167.789 21.1919C166.85 22.5572 165.869 24.0079 164.845 25.5439C163.821 26.9946 162.712 28.4452 161.517 29.8959C159.81 32.1146 158.018 34.5466 156.141 37.1919C154.264 39.7519 152.514 42.4399 150.893 45.2559C149.442 47.8159 148.205 50.4613 147.181 53.1919C146.157 55.8373 145.304 58.5252 144.621 61.2559C144.536 61.8532 144.45 62.3226 144.365 62.6639C144.365 63.0906 144.365 63.3893 144.365 63.5599L144.493 65.4799C144.578 65.7359 144.621 66.3333 144.621 67.2719C144.621 69.4906 143.725 70.5999 141.933 70.5999ZM124.397 59.5919C125.336 59.5919 126.189 59.4213 126.957 59.0799C130.2 57.9706 133.272 56.5626 136.173 54.8559C139.074 53.1492 142.146 50.8452 145.389 47.9439C145.816 46.7492 146.328 45.4692 146.925 44.1039C147.522 42.7386 148.162 41.2453 148.845 39.6239C147.821 37.4906 146.328 36.4239 144.365 36.4239C143.085 36.4239 141.72 36.8506 140.269 37.7039C138.818 38.5572 137.197 39.7092 135.405 41.1599C133.698 42.5252 131.949 44.0612 130.157 45.7679C128.45 47.4746 126.957 49.1386 125.677 50.7599C124.397 52.2959 123.501 53.5759 122.989 54.5999C122.477 55.4532 122.221 56.4346 122.221 57.5439C122.221 58.9092 122.946 59.5919 124.397 59.5919Z" fill="black"/>
<path d="M163.725 62.4079C161.933 62.4079 160.354 61.9386 158.989 60.9999C156.77 59.2932 155.661 56.7332 155.661 53.3199C155.661 49.9066 156.856 46.2799 159.245 42.4399C161.634 38.5999 165.261 35.0586 170.125 31.8159C170.978 31.2186 172.13 30.9199 173.581 30.9199C175.458 30.9199 177.122 31.4319 178.573 32.4559C180.109 33.4799 180.706 34.8026 180.365 36.4239C179.768 39.0692 178.445 41.4159 176.397 43.4639C174.434 45.5119 172.088 47.3466 169.357 48.9679C166.712 50.5039 163.981 51.9972 161.165 53.4479C161.08 53.7039 160.994 53.9599 160.909 54.2159C160.909 54.4719 160.909 54.7279 160.909 54.9839C160.909 56.1786 161.293 57.2452 162.061 58.1839C162.914 59.0372 164.066 59.4639 165.517 59.4639C166.626 59.4639 167.565 59.2932 168.333 58.9519C169.698 58.4399 170.808 57.9706 171.661 57.5439C172.6 57.1172 173.666 56.4773 174.861 55.6239C176.056 54.7706 177.677 53.4906 179.725 51.7839C180.664 51.1012 181.218 50.7599 181.389 50.7599C181.901 50.7599 182.072 51.1439 181.901 51.9119C181.048 53.2772 179.554 54.7706 177.421 56.3919C175.373 58.0132 173.069 59.4213 170.509 60.6159C168.034 61.8106 165.773 62.4079 163.725 62.4079ZM161.933 49.9919C162.616 49.9919 164.024 49.3092 166.157 47.9439C168.29 46.5786 170.296 45.0852 172.173 43.4639C175.416 40.4772 177.037 38.1732 177.037 36.5519C177.037 36.1252 176.909 35.7413 176.653 35.3999C176.397 34.9733 176.013 34.7599 175.501 34.7599C173.88 34.7599 171.149 36.6799 167.309 40.5199C164.664 43.0799 162.872 46.2372 161.933 49.9919Z" fill="black"/>
<path d="M182.188 69.4479C181.249 69.4479 180.439 69.1493 179.756 68.5519C179.159 67.9546 178.903 67.2292 178.988 66.3759C179.159 62.8772 179.799 59.5066 180.908 56.2639C182.103 53.0212 183.809 49.1386 186.028 44.6159C186.284 44.0186 186.497 43.5066 186.668 43.0799C186.924 42.5679 187.137 42.1412 187.308 41.7999C189.185 37.7892 191.105 33.9492 193.068 30.2799C195.031 26.6106 196.993 23.0266 198.956 19.5279L200.748 16.3279C202.796 12.6586 204.588 9.71458 206.124 7.49591C207.66 5.19191 209.196 3.52791 210.732 2.50391C212.695 1.30925 213.889 0.711914 214.316 0.711914C214.999 0.711914 215.681 1.30925 216.364 2.50391C216.791 3.35725 215.937 5.44791 213.804 8.77591C212.695 10.4826 211.287 12.6159 209.58 15.1759C207.959 17.7359 205.996 20.6372 203.692 23.8799C203.265 24.4772 202.54 25.5439 201.516 27.0799C200.577 28.5306 199.297 30.4506 197.676 32.8399C196.055 35.2292 194.647 37.4052 193.452 39.3679C192.257 41.2452 191.276 42.9093 190.508 44.3599C188.972 47.1759 187.521 50.2052 186.156 53.4479C184.791 56.6052 184.108 59.0799 184.108 60.8719C184.108 62.4933 184.748 63.3039 186.028 63.3039C188.076 63.3039 191.361 61.5546 195.884 58.0559C196.396 58.1412 196.652 58.3973 196.652 58.8239C196.652 59.1653 196.225 59.7626 195.372 60.6159C194.604 61.3839 193.623 62.1946 192.428 63.0479C191.319 63.9866 189.996 65.0533 188.46 66.2479L186.412 67.7839C185.047 68.8933 183.639 69.4479 182.188 69.4479Z" fill="black"/>
</svg>
