<svg xmlns="http://www.w3.org/2000/svg" viewBox="0 0 183.23 146.93"><defs><style>.cls-1{opacity:0.2;}.cls-2{opacity:0.51;}.cls-3{fill:#1d9ed9;}.cls-4{fill:#fff;}.cls-5{fill:#feffff;}.cls-6{fill:#fafcfe;}.cls-7{fill:#fbfcfe;}.cls-8{fill:#30a1da;}.cls-9{fill:#3ca3db;}.cls-10{fill:#229fd9;}.cls-11{fill:#219ed9;}</style></defs><g id="Layer_2" data-name="Layer 2"><g id="Layer_1-2" data-name="Layer 1" class="cls-1"><g class="cls-2"><path class="cls-3" d="M90.12,0c19.11-.07,36.58,0,54,2.22A68.86,68.86,0,0,1,162.48,7c11.26,4.81,16.25,14.15,18.41,25.54A134.39,134.39,0,0,1,183,55.61c.22,15.84.62,31.7-.65,47.53A94.49,94.49,0,0,1,179.8,119c-4.07,16-15.94,22.37-30.81,24.88-21.78,3.69-43.78,3-65.74,3-16.35,0-32.71-.16-48.87-3-9.84-1.75-19.22-4.71-25.49-13.38-4.37-6-6.3-13.06-7-20.29a361.31,361.31,0,0,1,0-72.86c1.52-14.9,7.54-26.87,23-31.83A96.92,96.92,0,0,1,45.37,1.54,426.67,426.67,0,0,1,90.12,0Z"/><path class="cls-4" d="M121.29,62.93c-4.22,2.68-8.39,5.35-12.58,8-1.64,1-3.35,2.82-5.22.59-1.65-2,0-3.44,1.18-4.86,5.35-6.27,10.68-12.55,16.07-18.78,3.34-3.85,3.44-3.8,5.46.75.3.68.65,1.33,1,2,2.41-.61,3.37-4.35,5.75-3.5,1.81.65,2.93,3.2,4.75,5.37,1.27-2.39,2.46-4.48,3.51-6.64s2.34-3,4.68-1.5C152.24,48.31,158.7,52.1,165.1,56c1.64,1,3.27,2.19,2.42,4.47s-3,1.92-4.8,1.59c-4.86-.91-9.69-2-15.23-3.09,3,7,5.61,13.3,8.26,19.6.72,1.72,1.28,3.53,2.13,5.18,1.44,2.78.81,4.67-1.93,6.16-1,.55-3,1.07-1.64,3,1,1.47,2.31,2.16,4.15,1,2.13-1.29,4.36-2.43,6.59-3.55,1.66-.83,3.49-1.15,4.81.42s.54,3.24-.72,4.67c-2.87,3.29-5.62,6.69-8.56,9.92-4,4.41-8.26,4.65-12.7.61-3.42-3.1-6.63-6.44-9.9-9.71-1.18-1.18-2.29-2.32-3,.29s-2.84,2.66-4.77,2.87a3.45,3.45,0,0,0-3.46,3.12A83.2,83.2,0,0,1,123.63,113c-1.06,2.86-.06,3.39,2.61,3.37,13.37-.09,26.73,0,40.1,0,1,0,2,0,3,.07s1.25.7,1.2,1.55a1.14,1.14,0,0,1-1.19,1.16c-1,0-2,.07-3,.07-13.49,0-27,.07-40.47-.06-2.65,0-4.48.32-5.35,3.2a10,10,0,0,1-2.48,3.68,4.58,4.58,0,0,1-5.14,1.26,3.8,3.8,0,0,1-2.62-4.46c.58-3.52-1.19-3.87-4-3.66a47.24,47.24,0,0,1-8.24,0c-3.64-.38-5.47.61-4.74,4.6a17.24,17.24,0,0,1,0,3.37c0,.81-.25,1.53-1.21,1.56s-1.21-.68-1.25-1.49c0-.5,0-1,0-1.5-.15-6.48-.15-6.48-6.5-6.48-1.25,0-2.5,0-3.75,0-2.93-.13-5.94-.71-4.9,4.19.38,1.79-1.13,3.54-3.22,4.06a4.09,4.09,0,0,1-4.56-1.81,2,2,0,0,1-.4-.63c-1.49-6.32-6.25-5.94-11.25-5.87-13.23.2-26.47.07-39.71.07q-1.5,0-3-.06a1.11,1.11,0,0,1-1.18-1.16c0-.82.18-1.51,1.15-1.57s2-.06,3-.06h46.8c-1.57-5-3.07-9.63-4.42-14.27-.55-1.91-2-2.09-3.47-2.14a29.58,29.58,0,0,1-9.21-1.42c-1.77-.65-2.8.29-3.89,1.41a75.24,75.24,0,0,1-8.18,7.68c-3.24,2.47-6.43,2.5-9.67.27C19.42,104.34,16.34,99.13,13,94.2a2.58,2.58,0,0,1,.52-3.7,3.06,3.06,0,0,1,3.81-.37c2.77,1.69,5.54,3.39,8.2,5.24,1.55,1.09,2.59.93,3.8-.48s.17-2.18-.66-3.09c-5.6-6.12-5.59-6.12-1.79-13.72l9.51-19c-4.82,1-9,1.81-13.22,2.67a6.48,6.48,0,0,1-1.08.3c-2,0-4.68,1.59-5.6-1.11-.77-2.25,1.69-3.29,3.4-4.29,6.45-3.8,12.94-7.54,19.35-11.41A4.26,4.26,0,0,1,44,45c4.06,2.22,8.18,2.22,11.93-.7,1.77-1.38,3-.73,4.2.57q9.57,10.53,19,21.15c1.11,1.25,2,2.82.67,4.38s-3,.64-4.4-.15c-4.09-2.34-8.12-4.76-12.86-7.55,2.09,9.49,4,18.22,5.94,26.94,1.73,7.79,3.56,15.55,5.19,23.35.52,2.5,1.49,3.57,4.21,3.35a101.74,101.74,0,0,1,10.48,0c1.76,0,2.43-.57,2.43-2.37q-.06-25.67,0-51.33c0-1.81-1.2-2.61-2.2-3.68-7.27-7.72-7.27-22.57,0-30.27,2.83-3,3.75-3,6.53.17,6.71,7.56,6.87,21.87.18,29.44a7.34,7.34,0,0,0-2.1,5.29c.09,16.36.13,32.72,0,49.08,0,3,.92,3.89,3.81,3.71a96,96,0,0,1,10.86,0c2.26.11,3.35-.56,3.81-2.86C115,97.72,118.29,82,121.54,66.25A4.34,4.34,0,0,0,121.29,62.93Z"/><path class="cls-4" d="M48,18.58a11.54,11.54,0,0,1,11,8c.61,1.75,1,3.46-.74,4.75-1,.76-.83,1.57-.71,2.61.43,3.86-1.4,7.27-4.64,8.53-3.48,1.34-6.66.72-9.12-2.2a3.68,3.68,0,0,0-3.36-1.69c-2.12.09-3.18-1.7-3.93-3.5A11.92,11.92,0,0,1,48,18.58Z"/><path class="cls-5" d="M130.62,17.79a9.24,9.24,0,0,1,9.46,11.11c-.68,3.67-1.63,7.28-2.27,11-.51,3-2.58,3.83-5.05,4-2.21.19-4.6.35-5.29-2.69-.3-1.3-1.59-1.46-2.54-2-3.69-2.11-5-4.87-4.4-9,.17-1.11.36-2.21.42-3.33C121.26,20.38,124,17.83,130.62,17.79Z"/><path class="cls-6" d="M88.63,97.36c-.13,2.3.44,5.32-1.55,6.23s-3.82-1.7-5.4-3.12c-6.4-5.74-9.84-12.71-8.2-21.53.71-3.82,1.52-4.1,4.87-1.88C85.66,81.9,88.34,89.08,88.63,97.36Z"/><path class="cls-7" d="M95.57,98.92c.22-9.27,3.21-16.51,10.87-21.39,2.43-1.55,3.47-1,4,1.72,1.94,9.33-2.79,20-11.16,25-1.87,1.11-3,1.08-3.23-1.42C96,101.32,95.7,99.86,95.57,98.92Z"/><path class="cls-8" d="M90.66,56.58c-6-6.86-6-19.22,0-25.37Z"/><path class="cls-9" d="M93.58,32c5.32,6.09,5.36,17.13,0,23.82Z"/><path class="cls-10" d="M85.48,100.21c-6.13-5-9.94-10.39-9.57-17.91,0-.91-.48-2.22.7-2.62,1-.34,1.8.68,2.49,1.33C84.49,86,86.34,92.22,85.48,100.21Z"/><path class="cls-11" d="M98.65,101.17c-.79-8,.91-14.47,6.8-19.48.62-.53,1.19-1.54,2.16-1.08s.53,1.54.57,2.36C108.57,90.71,104.88,96.3,98.65,101.17Z"/></g></g></g></svg>